<svg xmlns="http://www.w3.org/2000/svg" viewBox="0 0 246.01 97.27"><defs><style>.a{fill:currentColor;}</style></defs><path class="a" d="M22.88,31.12C24,16.36,27.39,10.24,38.64,10.24c7,0,16,1.62,24,1.62,9.13,0,10.76-4.75,11-10.63H81c.25,5.88,1.88,10.63,11,10.63,8,0,17.5-1.62,24.38-1.62,11.25,0,14.63,6.12,15.75,20.88l-7.25,1.25c-1.75-8-2.63-10.76-9-10.76-6.63,0-15.76,1.63-24,1.63-9.63,0-12.75-4-14.63-8.5-1.87,4.5-4.87,8.5-14.5,8.5-8.25,0-16.88-1.63-23.63-1.63-6.38,0-7.25,2.76-9,10.76Z" transform="translate(-2 -1.23)"/><path class="a" d="M30.14,67.37c1.75,8,2.62,10.75,9,10.75,6.75,0,15.38-1.62,23.63-1.62,9.63,0,12.63,4,14.5,8.5,1.88-4.5,5-8.5,14.63-8.5,8.25,0,17.38,1.62,24,1.62,6.37,0,7.25-2.75,9-10.75l7.25,1.25C131,83.37,127.66,89.5,116.41,89.5c-6.88,0-16.38-1.63-24.38-1.63-9.13,0-10.76,4.76-11,10.63H73.65c-.25-5.87-1.88-10.63-11-10.63-8,0-17,1.63-24,1.63C27.39,89.5,24,83.37,22.88,68.62Z" transform="translate(-2 -1.23)"/><path class="a" d="M22.13,60.88a16.36,16.36,0,0,1-8.3,2C5.54,62.92,2,57.82,2,50.16c0-9.22,5.33-13.25,12.71-13.25a17.81,17.81,0,0,1,7.37,1.5v6.46l-3.25-.15-.58-3.2a.7.7,0,0,0-.58-.68,11.1,11.1,0,0,0-3.3-.44c-4.32,0-7.76,2.53-7.76,9.46s3.2,9.42,7.9,9.42a13,13,0,0,0,6.22-1.6Z" transform="translate(-2 -1.23)"/><path class="a" d="M23.78,49.77c0-7.62,3.48-12.86,10.92-12.86S45,42.2,45,49.48c0,8.15-3.31,13.44-10.75,13.44S23.78,57.48,23.78,49.77Zm17.14,0c0-6.36-2.09-9.17-6.31-9.17s-6.74,2.81-6.74,9.22,2.22,9.56,6.52,9.56S40.92,56.42,40.92,49.77Z" transform="translate(-2 -1.23)"/><path class="a" d="M62.34,62.32V59.65l2.33-.29c.63,0,.87-.29.87-1V46.89c0-3.16-.63-6.21-4.22-6.21a12.19,12.19,0,0,0-7.52,3.1V58.39c0,.77.05.87.77,1l2.72.34v2.62H46.18V59.65l2.43-.29c.67-.1.77-.25.77-1V41.89c0-.54-.14-.88-.63-1L46,40l.44-2.57h6.36l.39,2.86.14,0c2.52-1.8,5.48-3.4,9-3.4,5.58,0,7.67,3.59,7.67,8.88V58.39c0,.77,0,.87.77,1l2.77.34v2.62Z" transform="translate(-2 -1.23)"/><path class="a" d="M78.84,52.35c-2.23,0-3.5-1.12-3.5-3.3s1.27-3.35,3.5-3.35,3.44,1.16,3.44,3.35S81.07,52.35,78.84,52.35Z" transform="translate(-2 -1.23)"/><path class="a" d="M106.11,60.88a16.39,16.39,0,0,1-8.3,2c-8.3,0-11.84-5.1-11.84-12.76,0-9.22,5.34-13.25,12.72-13.25a17.85,17.85,0,0,1,7.37,1.5v6.46l-3.25-.15-.58-3.2a.71.71,0,0,0-.58-.68,11.15,11.15,0,0,0-3.3-.44c-4.32,0-7.77,2.53-7.77,9.46s3.2,9.42,7.91,9.42a13,13,0,0,0,6.21-1.6Z" transform="translate(-2 -1.23)"/><path class="a" d="M124.84,62.33l-.43-3.15-.15,0a12.35,12.35,0,0,1-8.78,3.79c-6.07,0-6.84-4.18-6.84-6.65,0-4.85,3-7.13,8.83-7.62l6.55-.53V45.55c0-3.55-.68-5.29-4.9-5.29-3,0-5.1.09-5.15,3.73l-4.17-.43c0-6,5.53-6.65,9.37-6.65,6.89,0,9.21,1.94,9.21,8.64V58.4c0,.78.05.88.78,1l2.48.33v2.62ZM124,51.17l-5.49.49c-4.17.39-5.33,1.6-5.33,4.12s1.11,3.69,3.39,3.69c2.87,0,5.92-2.33,7.43-3.73Z" transform="translate(-2 -1.23)"/><path class="a" d="M148.14,61.41a18.33,18.33,0,0,1-6.75,1.51c-4.66,0-6.74-2.19-6.74-6.55V41.23c0-.29,0-.49-.39-.49h-3.54V37.93c3.78-.49,4.85-2,5.48-6.94h2.86v5.92c0,.29,0,.48.39.48h7.13v3.35h-7.52V55.06c0,3,.73,4.22,3.5,4.22a12.81,12.81,0,0,0,4.51-1Z" transform="translate(-2 -1.23)"/><path class="a" d="M154.64,62.92c-2.09,0-3.2-1-3.2-3.06s1.11-3.06,3.2-3.06,3.2,1,3.2,3.06S156.73,62.92,154.64,62.92Z" transform="translate(-2 -1.23)"/><path class="a" d="M181.13,60.88a16.35,16.35,0,0,1-8.29,2c-8.3,0-11.84-5.1-11.84-12.76,0-9.22,5.33-13.25,12.71-13.25a17.91,17.91,0,0,1,7.38,1.5v6.46l-3.26-.15-.58-3.2a.7.7,0,0,0-.58-.68,11.1,11.1,0,0,0-3.3-.44c-4.32,0-7.76,2.53-7.76,9.46s3.2,9.42,7.91,9.42a13,13,0,0,0,6.21-1.6Z" transform="translate(-2 -1.23)"/><path class="a" d="M183.81,62.33V59.67l3-.29c.68-.05.78-.25.78-1V30.21c0-.53-.15-.87-.63-1l-2.91-.92.44-2.57H192V58.4c0,.78,0,.88.77,1l2.91.33v2.62Z" transform="translate(-2 -1.23)"/><path class="a" d="M215.59,62.33,215.2,59l-.1,0c-2.23,1.89-5.09,3.93-9.36,3.93-5.34,0-7-3.25-7-8.83V41.76c0-.78-.05-1-.77-1.11L195.45,40l.39-2.62h7.33V53.07c0,4.22.73,6.26,3.78,6.26,3.3,0,6.12-2.28,7.81-4.23V41.71c0-.77,0-.92-.77-1.06L211.56,40l.39-2.62h7.23v21c0,.72.15,1,.68,1l2.57.33v2.62Z" transform="translate(-2 -1.23)"/><path class="a" d="M225.54,62.33a48.18,48.18,0,0,0,.58-6.93V30.21c0-.53-.14-.87-.63-1l-2.86-.92.44-2.57h7.47v14a15.06,15.06,0,0,1,8.3-2.81c5.43,0,9.17,3.49,9.17,12,0,10-4.13,14-10.24,14a10.55,10.55,0,0,1-7.52-3l-.15.1-.24,2.32Zm5-6.21c1.55,1.46,4,3.16,6.65,3.16,4.56,0,6.35-3.79,6.35-10s-2.42-8.73-5.87-8.73a13,13,0,0,0-7.13,2.71Z" transform="translate(-2 -1.23)"/></svg>